<svg id="Layer_1" viewBox="0 0 24 24" xmlns="http://www.w3.org/2000/svg" data-name="Layer 1"><path d="m15.371 15.463c.151.671-.607 1.265-1.221.954-.786-.364-1.493-.744-2.15-1.143-.657.4-1.363.779-2.15 1.143-.614.312-1.373-.283-1.221-.954.146-.768.331-1.538.552-2.308-.507-.431-1.01-.879-1.533-1.343-.558-.463-.255-1.446.467-1.514.788-.101 1.489-.177 2.146-.226.29-.701.611-1.399.96-2.094.293-.64 1.263-.64 1.556 0 .349.695.67 1.393.96 2.094.658.049 1.358.124 2.146.226.722.068 1.025 1.051.467 1.514-.523.464-1.026.912-1.533 1.343.221.77.406 1.54.552 2.308zm-13.154-7.471c.042.005.084.008.125.008.497 0 .927-.37.991-.876.177-1.412.385-2.592.516-3.274.683-.131 1.862-.339 3.275-.516.548-.068.937-.568.868-1.116-.068-.548-.573-.941-1.116-.868-2.336.292-4.02.659-4.09.675-.381.083-.679.381-.762.762-.016.07-.382 1.754-.675 4.09-.069.548.32 1.048.868 1.116zm4.907 12.675c-1.413-.177-2.592-.385-3.275-.516-.131-.683-.339-1.863-.516-3.275-.069-.548-.573-.939-1.116-.868-.548.068-.937.568-.868 1.116.292 2.336.659 4.02.675 4.09.083.381.381.679.762.762.071.016 1.754.382 4.09.674.537.071 1.05-.318 1.116-.868.068-.548-.32-1.048-.868-1.116zm14.659-4.659c-.545-.071-1.048.32-1.116.868-.177 1.412-.385 2.592-.516 3.275-.683.131-1.862.339-3.275.516-.548.068-.937.568-.868 1.116.066.55.579.939 1.116.868 2.336-.292 4.02-.659 4.09-.674.381-.083.679-.381.762-.762.016-.071.382-1.754.675-4.09.069-.548-.32-1.048-.868-1.116zm.958-10.615c-.128.141-.846.89-2.431 1.81-1.662.964-2.693 1.195-2.805 1.219-.485.103-.992-.18-1.151-.663-.036-.109-.354-1.116-.354-3.037s.317-2.929.354-3.037c.16-.481.655-.768 1.151-.663.112.023 1.144.254 2.805 1.218 1.599.928 2.308 1.673 2.434 1.813.343.381.342.96-.003 1.34zm-2.278-.672c-.294-.216-.677-.473-1.157-.752-.483-.28-.898-.485-1.235-.634-.04.365-.071.828-.071 1.386s.031 1.021.071 1.386c.336-.149.751-.354 1.234-.634.48-.279.862-.536 1.157-.752z"/></svg>