<svg width="299" height="33" viewBox="0 0 299 33" fill="none" xmlns="http://www.w3.org/2000/svg">
<path d="M0.43457 32.4832L5.57347 1.33491H13.9771L9.98687 25.6695H22.5016L21.3529 32.4832H0.43457Z" fill="black"/>
<path d="M60.2664 17.4566C59.7022 20.8432 58.5837 23.6822 56.911 25.9737C55.2384 28.2652 53.208 29.994 50.8199 31.16C48.4319 32.326 45.8775 32.9091 43.1569 32.9091C40.255 32.9091 37.7359 32.2753 35.5997 31.0079C33.4636 29.7405 31.9068 27.885 30.9294 25.4414C29.952 22.9978 29.7555 20.0117 30.3399 16.4832C30.884 13.0966 31.9924 10.2475 33.6651 7.93567C35.3377 5.62389 37.3782 3.87484 39.7864 2.68853C42.1946 1.50221 44.7691 0.909058 47.5099 0.909058C50.3917 0.909058 52.8956 1.54784 55.0217 2.82541C57.1579 4.10297 58.7096 5.9737 59.677 8.43757C60.6544 10.9015 60.8509 13.9078 60.2664 17.4566ZM51.8024 16.4832C52.0845 14.6987 52.1047 13.198 51.8628 11.9813C51.621 10.7544 51.1121 9.83175 50.3363 9.21324C49.5604 8.5846 48.5175 8.27027 47.2076 8.27027C45.7163 8.27027 44.3963 8.63529 43.2476 9.36533C42.0989 10.0954 41.1467 11.1448 40.391 12.5136C39.6353 13.8824 39.1063 15.5301 38.804 17.4566C38.4815 19.2614 38.4513 20.762 38.7133 21.9585C38.9854 23.1549 39.5194 24.0523 40.3154 24.6505C41.1215 25.2487 42.1695 25.5478 43.4592 25.5478C44.9304 25.5478 46.2302 25.193 47.3587 24.4832C48.4973 23.7734 49.4395 22.7443 50.1851 21.3958C50.9408 20.0472 51.4799 18.4097 51.8024 16.4832Z" fill="black"/>
<path d="M89.4803 11.6163C89.44 11.0789 89.3292 10.6074 89.1478 10.2018C88.9664 9.78612 88.7095 9.43631 88.3769 9.1524C88.0444 8.85836 87.6313 8.64036 87.1376 8.49841C86.6539 8.34632 86.0846 8.27027 85.4296 8.27027C84.019 8.27027 82.7342 8.60994 81.5755 9.28929C80.4167 9.96863 79.4443 10.9471 78.6584 12.2246C77.8825 13.5022 77.3485 15.0434 77.0563 16.8482C76.754 18.6733 76.7288 20.2348 76.9807 21.5326C77.2326 22.8305 77.7767 23.8241 78.613 24.5136C79.4594 25.2031 80.6031 25.5478 82.044 25.5478C83.3338 25.5478 84.4472 25.3603 85.3843 24.9851C86.3214 24.6099 87.0721 24.0776 87.6363 23.3881C88.2006 22.6987 88.5533 21.8875 88.6944 20.9547L90.1453 21.1068H83.0718L84.0391 15.084H97.763L97.0677 19.4034C96.6042 22.2424 95.6067 24.6708 94.0751 26.6885C92.5535 28.6961 90.6592 30.2373 88.3921 31.3121C86.1249 32.3767 83.6361 32.9091 80.9255 32.9091C77.9228 32.9091 75.3886 32.2652 73.323 30.9775C71.2574 29.6898 69.7812 27.8546 68.8945 25.4718C68.0179 23.089 67.8466 20.2551 68.3806 16.9699C68.8038 14.3945 69.5696 12.1131 70.678 10.1258C71.7965 8.13846 73.1618 6.46039 74.774 5.09157C76.3862 3.71261 78.1646 2.67332 80.1094 1.9737C82.0541 1.26394 84.0693 0.909058 86.1551 0.909058C87.9789 0.909058 89.6365 1.17268 91.1278 1.69993C92.6191 2.21704 93.8937 2.95722 94.9517 3.92046C96.0097 4.87357 96.8007 6.00411 97.3247 7.3121C97.8587 8.62008 98.0754 10.0548 97.9746 11.6163H89.4803Z" fill="black"/>
<path d="M135.532 17.4566C134.967 20.8432 133.849 23.6822 132.176 25.9737C130.504 28.2652 128.473 29.994 126.085 31.16C123.697 32.326 121.143 32.9091 118.422 32.9091C115.52 32.9091 113.001 32.2753 110.865 31.0079C108.729 29.7405 107.172 27.885 106.195 25.4414C105.217 22.9978 105.021 20.0117 105.605 16.4832C106.149 13.0966 107.258 10.2475 108.93 7.93567C110.603 5.62389 112.643 3.87484 115.052 2.68853C117.46 1.50221 120.034 0.909058 122.775 0.909058C125.657 0.909058 128.161 1.54784 130.287 2.82541C132.423 4.10297 133.975 5.9737 134.942 8.43757C135.92 10.9015 136.116 13.9078 135.532 17.4566ZM127.068 16.4832C127.35 14.6987 127.37 13.198 127.128 11.9813C126.886 10.7544 126.377 9.83175 125.601 9.21324C124.826 8.5846 123.783 8.27027 122.473 8.27027C120.981 8.27027 119.661 8.63529 118.513 9.36533C117.364 10.0954 116.412 11.1448 115.656 12.5136C114.9 13.8824 114.371 15.5301 114.069 17.4566C113.747 19.2614 113.716 20.762 113.978 21.9585C114.251 23.1549 114.785 24.0523 115.581 24.6505C116.387 25.2487 117.435 25.5478 118.724 25.5478C120.196 25.5478 121.495 25.193 122.624 24.4832C123.763 23.7734 124.705 22.7443 125.45 21.3958C126.206 20.0472 126.745 18.4097 127.068 16.4832Z" fill="black"/>
<path d="M185.854 1.33491L180.715 32.4832H173.702L165.238 16.1182H165.057L162.336 32.4832H153.933L159.072 1.33491H166.206L174.549 17.6391H174.791L177.451 1.33491H185.854Z" fill="black"/>
<path d="M196.988 32.4832H187.919L203.275 1.33491H214.762L219.84 32.4832H210.772L207.749 9.91286H207.507L196.988 32.4832ZM197.35 20.1942H214.399L213.311 26.5212H196.262L197.35 20.1942Z" fill="black"/>
<path d="M232.217 1.33491H242.676L246.969 18.9775H247.331L257.428 1.33491H267.887L262.748 32.4832H254.526L257.488 14.4756H257.246L247.452 32.2399H242.495L238.565 14.3539H238.323L235.3 32.4832H227.078L232.217 1.33491Z" fill="black"/>
<path d="M270.987 32.4832L276.126 1.33491H298.435L297.286 8.1486H283.381L282.534 13.5022H295.291L294.142 20.3159H281.386L280.539 25.6695H294.384L293.235 32.4832H270.987Z" fill="black"/>
</svg>
